Coordinates
version=1
nRows=9
nColumns=42
inDegrees=yes

Units are S.I. units (second, meters, Newtons, ...)
If the header above contains a line with 'inDegrees', this indicates whether rotational values are in degrees (yes) or radians (no).

endheader
time	pelvis_tilt	pelvis_list	pelvis_rotation	pelvis_tx	pelvis_ty	pelvis_tz	hip_flexion_r	hip_adduction_r	hip_rotation_r	knee_angle_r	knee_adduction_r	knee_angle_r_beta	ankle_angle_r	subtalar_angle_r	mtp_angle_r	hip_flexion_l	hip_adduction_l	hip_rotation_l	knee_angle_l	knee_adduction_l	knee_angle_l_beta	ankle_angle_l	subtalar_angle_l	mtp_angle_l	lumbar_extension	lumbar_bending	lumbar_rotation	arm_flex_r	arm_add_r	arm_rot_r	elbow_flex_r	pro_sup_r	wrist_flex_r	wrist_dev_r	arm_flex_l	arm_add_l	arm_rot_l	elbow_flex_l	pro_sup_l	wrist_flex_l	wrist_dev_l
      2.90000000	      5.66802095	      6.29429037	     20.82097258	      0.66896107	      0.89690958	      0.50821509	      0.38411314	     -1.38022404	    -28.23536475	     24.47050814	     -1.62117176	      0.42709094	     20.26567423	      6.01725917	     -7.53404185	     28.61452143	     -9.19840799	     -2.59357917	     30.56415127	      4.80940724	      0.53344507	      6.69644923	     14.28797343	     -7.53404185	    -23.23072759	     -8.04618033	     -5.28562306	     -8.07078174	    -27.53615029	    -47.50058594	     64.63608394	     90.00000001	      0.00000000	      0.00000000	      4.49933783	    -20.72534674	     11.70014664	     86.77324531	     90.00000001	      0.00000000	      0.00000000
      2.91000000	      5.88515211	      6.36325167	     20.31840752	      0.67161826	      0.89677055	      0.50832668	      0.05567605	     -1.39754845	    -28.05507053	     24.63553034	     -1.63913326	      0.42997112	     20.19398842	      6.05029298	     -7.53365779	     29.20823526	     -8.91959170	     -2.48037592	     30.68117293	      4.87772839	      0.53548749	      6.63591724	     14.27136684	     -7.53365779	    -23.19875410	     -8.16144681	     -4.78498424	     -7.70443700	    -27.66906512	    -47.21133564	     64.93797145	     90.00000001	      0.00000000	      0.00000000	      4.22305614	    -20.61741208	     11.73441040	     86.70078491	     90.00000001	      0.00000000	      0.00000000
      2.92000000	      6.34154625	      6.48786335	     19.84479326	      0.67449731	      0.89683181	      0.50828832	     -0.65559039	     -1.37305309	    -27.95642678	     24.59482916	     -1.63293396	      0.42926075	     20.76085681	      6.39804178	     -7.53280701	     29.62030237	     -8.69716167	     -2.65587910	     31.10000516	      4.84463598	      0.54279749	      6.63875354	     14.31889418	     -7.53280701	    -23.45663649	     -8.17586112	     -4.52512104	     -7.73805370	    -27.88469358	    -46.00812499	     66.28450349	     90.00000001	      0.00000000	      0.00000000	      3.64565152	    -20.50587783	     11.31333681	     87.01592900	     90.00000001	      0.00000000	      0.00000000
      2.93000000	      6.56441577	      6.54654678	     19.28971647	      0.67723703	      0.89663793	      0.50833792	     -0.96337835	     -1.40602045	    -27.72812183	     24.79140942	     -1.66697991	      0.43269172	     20.68830172	      6.45246965	     -7.53239494	     30.13793855	     -8.41953981	     -2.47254517	     31.27158573	      4.91707460	      0.54579213	      6.57101176	     14.30960138	     -7.53239494	    -23.41638784	     -8.27474080	     -4.01218740	     -7.39297971	    -27.95549515	    -45.64801256	     66.63059907	     90.00000001	      0.00000000	      0.00000000	      3.30397839	    -20.37152605	     11.35316917	     86.94092797	     90.00000001	      0.00000000	      0.00000000
      2.94000000	      7.01757798	      6.62540342	     18.79108528	      0.68014668	      0.89661381	      0.50829407	     -1.62064155	     -1.35947491	    -27.61877280	     24.82049972	     -1.69607885	      0.43319944	     21.21868501	      7.03866516	     -7.53118637	     30.44940028	     -8.23729917	     -2.37002842	     31.61655183	      5.04186486	      0.55181293	      6.64164563	     14.32995333	     -7.53118637	    -23.65488810	     -8.24007724	     -3.75822869	     -7.54915045	    -28.22142893	    -44.14449976	     67.98731577	     90.00000001	      0.00000000	      0.00000000	      2.64518775	    -20.23774114	     10.92762517	     87.21225128	     90.00000001	      0.00000000	      0.00000000
      2.95000000	      7.23152504	      6.65403950	     18.22381962	      0.68283920	      0.89632991	      0.50833558	     -1.87937391	     -1.37777919	    -27.34509282	     25.06675369	     -1.74098043	      0.43749738	     21.11678384	      7.06235425	     -7.53079942	     30.92057375	     -7.95315284	     -2.13224603	     31.80258284	      5.08155543	      0.55505978	      6.55365922	     14.30331969	     -7.53079942	    -23.60531832	     -8.30889462	     -3.23133021	     -7.19906942	    -28.21581489	    -43.82572813	     68.29008987	     90.00000001	      0.00000000	      0.00000000	      2.29610687	    -20.08281080	     11.00596442	     87.12560562	     90.00000001	      0.00000000	      0.00000000
      2.96000000	      7.62281609	      6.70042397	     17.72460448	      0.68558687	      0.89613678	      0.50836372	     -2.38880424	     -1.29304950	    -27.02904419	     25.18684633	     -1.80561511	      0.43959340	     21.71064601	      7.09058859	     -7.53016779	     31.24193051	     -7.80324196	     -1.79453672	     32.18085910	      5.38807463	      0.56166195	      6.49908061	     14.10979377	     -7.53016779	    -23.79262809	     -8.24696823	     -3.02905046	     -7.14014672	    -28.21984408	    -42.72198440	     69.84172969	     90.00000001	      0.00000000	      0.00000000	      1.66172780	    -20.07942295	     10.86228583	     87.29745720	     90.00000001	      0.00000000	      0.00000000
      2.97000000	      7.83149466	      6.69287672	     17.15583414	      0.68820349	      0.89576083	      0.50829132	     -2.62493024	     -1.29702855	    -26.73419221	     25.42191841	     -1.84500666	      0.44369618	     21.63678182	      7.12745826	     -7.52976503	     31.64325346	     -7.53238559	     -1.51008634	     32.36082927	      5.43065962	      0.56480302	      6.41156509	     14.05694793	     -7.52976503	    -23.74783939	     -8.24879019	     -2.52644497	     -6.86682709	    -28.23090700	    -42.29397299	     70.22658025	     90.00000001	      0.00000000	      0.00000000	      1.27815014	    -19.88880964	     10.93272645	     87.21603523	     90.00000001	      0.00000000	      0.00000000
      2.98000000	      8.22103319	      6.61823111	     16.73667535	      0.69086606	      0.89544268	      0.50815339	     -3.14448404	     -1.08657731	    -26.39688355	     25.45355290	     -1.86509843	      0.44424830	     22.24263488	      7.17384756	     -7.52909104	     31.87600057	     -7.41957741	     -0.88844995	     32.58138293	      5.78498573	      0.56865241	      6.34916689	     13.70387668	     -7.52909104	    -23.92413591	     -8.02118444	     -2.33796812	     -7.06830736	    -28.39540446	    -40.77807184	     71.89900201	     90.00000001	      0.00000000	      0.00000000	      0.65803760	    -19.77949762	     10.77606990	     87.32777140	     90.00000001	      0.00000000	      0.00000000
